# xmcd
#
# Track frame offsets: 
#        150
#        22947
#        47900
#        67482
#        85122
#        100185
#        121452
#        143412
#        165462
#        188827
#        207952
#        230012
#        253942
#
# Disc length: 3702 seconds
#
# Revision: 24
# Processed by: cddbd v1.5.2PL0 Copyright (c) Steve Scherf et al.
# Submitted via: ExactAudioCopy v1.3
#
DISCID=b50e740d
DTITLE=Luther Vandross - Songs
DYEAR=1994
DGENRE=R&B
TTITLE0=Love The One You're With
TTITLE1=Killing Me Softly
TTITLE2=Endless Love
TTITLE3=Evergreen
TTITLE4=Reflections
TTITLE5=Hello
TTITLE6=Ain't No Stoppin' Us Now
TTITLE7=Always And Forever
TTITLE8=Going In Circles
TTITLE9=Since You've Been Gone
TTITLE10=All The Woman I Need
TTITLE11=What The World Needs Now
TTITLE12=The Impossible Dream
EXTD=YEAR: 1994
EXTT0=
EXTT1=
EXTT2=
EXTT3=
EXTT4=
EXTT5=
EXTT6=
EXTT7=
EXTT8=
EXTT9=
EXTT10=
EXTT11=
EXTT12=
PLAYORDER=
